<svg width="128" height="128" viewBox="0 0 128 128" fill="none" xmlns="http://www.w3.org/2000/svg">
<path d="M79.969 10.016C73.074 10.016 67.489 15.602 67.489 22.496C67.4954 24.756 68.1154 26.9718 69.2827 28.907C70.45 30.8422 72.1209 32.4242 74.117 33.484L67.23 46.554C65.5456 46.0086 63.7864 45.7296 62.016 45.727C52.648 45.727 45.055 53.32 45.055 62.687C45.07 63.898 45.215 65.105 45.488 66.285L31.778 71.301C30.4853 69.2433 28.6917 67.5471 26.565 66.3713C24.4383 65.1955 22.0481 64.5785 19.618 64.578C11.68 64.578 5.25 71.008 5.25 78.945C5.25 86.879 11.68 93.313 19.617 93.313C27.551 93.313 33.984 86.879 33.984 78.945C33.9819 77.9113 33.8692 76.8808 33.648 75.871L46.789 70.101C48.1776 72.9592 50.3414 75.3697 53.0337 77.0577C55.7259 78.7457 58.8383 79.6433 62.016 79.648C65.7382 79.6327 69.3519 78.3933 72.3 76.121L83.358 86.648C80.9938 90.1002 79.7227 94.1838 79.71 98.368C79.71 109.875 89.038 119.199 100.542 119.199C112.05 119.199 121.374 109.875 121.374 98.367C121.374 86.863 112.05 77.535 100.542 77.535C95.755 77.5501 91.1191 79.2122 87.413 82.242L75.647 72.707C77.7947 69.8064 78.961 66.2962 78.976 62.687C78.9741 59.9349 78.3027 57.2245 77.0198 54.7897C75.7369 52.3549 73.8809 50.2686 71.612 48.711L77.448 34.688C78.276 34.868 79.12 34.965 79.968 34.977C86.858 34.977 92.448 29.391 92.448 22.497C92.448 15.605 86.859 10.016 79.969 10.016Z" fill="#3CAFCE"/>
</svg>
